<svg id="refresh" xmlns="http://www.w3.org/2000/svg" width="46.877" height="45.509" viewBox="0 0 46.877 45.509">
  <path id="Path_1897" data-name="Path 1897" d="M41.757,11.84,40.19,23.534l2.844-1.174A14.615,14.615,0,0,1,23.058,41.268l-3.67,7.265A22.743,22.743,0,0,0,50.093,18.285l2.98-1.251Z" transform="translate(-6.197 -5.467)" fill="#fff"/>
  <path id="Path_1898" data-name="Path 1898" d="M19.279,14.083A14.593,14.593,0,0,1,33.173,13.7l3.67-7.261A22.743,22.743,0,0,0,6.133,36.685l-2.98,1.251L14.47,43.13l1.567-11.694L13.193,32.61a14.646,14.646,0,0,1,6.086-18.527Z" transform="translate(-3.153 -3.996)" fill="#fff"/>
</svg>
